<svg width="168" height="155" viewBox="0 0 168 155" fill="none" xmlns="http://www.w3.org/2000/svg">
<path d="M48.0255 73.6064C48.0255 83.5475 56.0844 91.6064 66.0255 91.6064L93.0255 91.6064C95.7869 91.6064 98.0255 89.3678 98.0255 86.6064L98.0255 52.6064C98.0255 47.0835 93.5484 42.6064 88.0255 42.6064L53.0255 42.6064C50.2641 42.6064 48.0255 44.845 48.0255 47.6064L48.0255 73.6064Z" fill="#FFF1DA"/>
<path d="M96.6094 87.5478C95.2511 87.852 93.9281 88.4155 92.7225 89.203C89.5817 91.2043 87.7544 94.061 88.6414 95.5831C89.5283 97.1053 92.7934 96.716 95.9342 94.7147C97.1559 93.9551 98.2413 92.9843 99.1235 91.8623C99.5329 91.3202 99.6064 90.6448 99.3111 90.1398L98.1589 88.1625C97.8658 87.6559 97.2577 87.4151 96.6094 87.5478Z" fill="#D5D6DB"/>
<path d="M88.7224 60.5546C87.7375 60.7754 86.778 61.1842 85.9038 61.7553C83.6269 63.2061 82.3012 65.2775 82.9438 66.3802C83.5864 67.483 85.9548 67.2005 88.2314 65.7499C89.1173 65.1988 89.9043 64.4945 90.5441 63.6809C90.8405 63.288 90.8937 62.7986 90.6797 62.4325L89.8454 61.0007C89.6331 60.6336 89.1925 60.4585 88.7224 60.5546Z" fill="#D5D6DB"/>
<path d="M75.9083 61.6851C75.6891 61.6606 75.4553 61.7191 75.2525 61.8486L69.9043 65.2568C69.457 65.541 69.278 66.0883 69.5049 66.4795C69.5568 66.5691 69.6278 66.6457 69.714 66.7047L82.8957 75.7896L100.729 64.4249L75.9083 61.6851Z" fill="#029BC5"/>
<path d="M132.285 60.4005L83.7532 90.9526L55.0405 102.378L40.3973 105.289L38.7864 102.552L119.681 52.6049C122.092 51.11 124.778 50.1925 127.467 49.9454C128.644 49.8435 129.807 49.8826 130.928 50.0614C131.922 50.2121 132.865 50.5029 133.729 50.925C134.693 51.4032 136.527 51.4583 137.122 52.4112C137.124 52.4096 138.526 56.784 132.285 60.4005V60.4005Z" fill="#E1E6E9"/>
<path d="M84.3965 86.91L63.4013 120.38C63.139 120.85 63.2947 121.377 63.7486 121.556C64.0271 121.666 64.3681 121.622 64.6545 121.44L69.9985 118.05C71.0263 117.398 71.9365 116.569 72.6726 115.616L113.389 67.7468L84.3965 86.91Z" fill="#029BC5"/>
<path d="M31.417 85.7925C31.0667 85.6728 30.6499 85.7349 30.2981 85.959L25.8806 88.7724C25.2787 89.1554 25.0389 89.8919 25.3447 90.4175C25.403 90.5175 25.4787 90.6054 25.5694 90.6779L37.9462 100.59L50.9592 92.4621L31.417 85.7925Z" fill="#029BC5"/>
<path d="M42.0946 102.377L35.4332 111.707C35.3355 111.841 35.3585 112.009 35.4844 112.082C35.5752 112.135 35.6993 112.126 35.8001 112.058L39.9283 109.442C39.9604 109.422 39.9894 109.396 40.0134 109.367L49.7469 97.5326L42.0946 102.377Z" fill="#029BC5"/>
<path d="M130.132 50.4637C128.977 50.2782 127.78 50.2386 126.567 50.3453C125.386 51.9963 124.631 53.851 124.378 55.7245C124.359 56.1008 124.663 56.3716 125.055 56.3295C125.178 56.3162 125.299 56.2733 125.408 56.2045L133.016 51.3603C132.127 50.9217 131.155 50.6198 130.132 50.4637Z" fill="#029BC5"/>
<path d="M113.552 59.3718L118.52 56.2348L123.146 64.1038L118.179 67.2408L113.552 59.3718Z" fill="#D5D6DB"/>
<path d="M110.427 62.484C109.828 62.8631 109.589 63.5919 109.893 64.1116L110.385 64.9536C110.709 65.4601 111.448 65.5491 112.037 65.1524C112.597 64.7746 112.822 64.088 112.552 63.5809L112.06 62.739C111.756 62.2197 111.025 62.1054 110.427 62.484V62.484Z" fill="#3A556A"/>
<path d="M105.963 65.2564C105.364 65.6356 105.125 66.3644 105.429 66.8841L105.921 67.7261C106.245 68.2325 106.984 68.3216 107.572 67.9249C108.132 67.5471 108.358 66.8604 108.088 66.3534L107.596 65.5114C107.292 64.9923 106.561 64.878 105.963 65.2564V65.2564Z" fill="#3A556A"/>
<path d="M101.497 68.0298C100.899 68.4094 100.66 69.1373 100.964 69.6566L101.456 70.4985C101.78 71.005 102.52 71.0941 103.108 70.6974C103.668 70.3196 103.893 69.6329 103.623 69.1259L103.131 68.284C102.827 67.7643 102.096 67.6505 101.497 68.0298V68.0298Z" fill="#3A556A"/>
<path d="M97.0324 70.8022C96.4345 71.1818 96.1961 71.9097 96.4997 72.429L96.9921 73.271C97.3159 73.7775 98.0552 73.8665 98.6434 73.4698C99.2033 73.092 99.4287 72.4054 99.1589 71.8983L98.6666 71.0563C98.3625 70.5368 97.6309 70.423 97.0324 70.8022V70.8022Z" fill="#3A556A"/>
<path d="M92.5684 73.5748C91.9702 73.9546 91.7317 74.6829 92.0355 75.2024L92.5281 76.0447C92.8317 76.564 93.563 76.6777 94.1614 76.2987C94.7597 75.9197 94.9986 75.1915 94.695 74.6723L94.2024 73.8299C93.8995 73.3102 93.1685 73.1957 92.5697 73.574C92.5692 73.5743 92.5689 73.5745 92.5684 73.5748Z" fill="#3A556A"/>
<path d="M88.1041 76.3473C87.5058 76.7271 87.2673 77.4553 87.5711 77.9748L88.0637 78.8172C88.3674 79.3364 89.0986 79.4502 89.697 79.0712C90.2954 78.6922 90.5343 77.964 90.2306 77.4447L89.738 76.6024C89.4351 76.0826 88.7041 75.9682 88.1053 76.3465C88.1048 76.3468 88.1043 76.3471 88.1041 76.3473Z" fill="#3A556A"/>
<path d="M83.6395 79.1198C83.0412 79.4996 82.8027 80.2278 83.1065 80.7473L83.5991 81.5896C83.9035 82.1084 84.6351 82.221 85.2328 81.8415C85.8296 81.4627 86.068 80.736 85.7657 80.2174L85.2731 79.3751C84.9696 78.8554 84.2383 78.7411 83.6395 79.1198Z" fill="#3A556A"/>
<path d="M79.1749 81.8923C78.5766 82.2721 78.3381 83.0004 78.6419 83.5199L79.1345 84.3622C79.4389 84.881 80.1705 84.9936 80.7682 84.6141C81.365 84.2352 81.6034 83.5086 81.3011 82.9899L80.8085 82.1476C80.505 81.6279 79.7737 81.5136 79.1749 81.8923Z" fill="#3A556A"/>
<path d="M74.7106 84.6648C74.1124 85.0445 73.8739 85.7728 74.1777 86.2922L74.6703 87.1346C74.9747 87.6533 75.7063 87.7659 76.304 87.3864C76.9007 87.0076 77.1391 86.281 76.8369 85.7623L76.3443 84.92C76.0405 84.4005 75.3092 84.2862 74.7106 84.6648Z" fill="#3A556A"/>
<path d="M70.2448 87.438C69.6464 87.817 69.4075 88.5452 69.7112 89.0644L69.7119 89.0655L70.2044 89.9079C70.5089 90.4267 71.2405 90.5392 71.8382 90.1597C72.4349 89.7809 72.6733 89.0542 72.371 88.5356L71.8785 87.6932C71.5749 87.1736 70.8437 87.0593 70.2448 87.438Z" fill="#3A556A"/>
<path d="M65.7816 90.2097C65.1832 90.5887 64.9443 91.3168 65.248 91.8361L65.2486 91.8372L65.7412 92.6795C66.0456 93.1983 66.7772 93.3108 67.375 92.9314C67.9717 92.5525 68.2101 91.8259 67.9078 91.3072L67.4152 90.4649C67.1114 89.9454 66.3802 89.8311 65.7816 90.2097Z" fill="#3A556A"/>
</svg>
